<svg xmlns="http://www.w3.org/2000/svg" width="28.126" height="18.005" viewBox="0 0 28.126 18.005">
  <path id="Icon_awesome-behance" data-name="Icon awesome-behance" d="M10.926,12.921A3.574,3.574,0,0,0,13.2,9.436C13.2,6.112,10.728,5.3,7.869,5.3H0v16.69H8.091c3.033,0,5.882-1.455,5.882-4.846a4.021,4.021,0,0,0-3.047-4.224ZM3.669,8.151H7.111c1.323,0,2.515.372,2.515,1.907,0,1.418-.928,1.987-2.237,1.987H3.669V8.151ZM7.591,19.156H3.669v-4.6h4c1.615,0,2.637.673,2.637,2.383C10.3,18.629,9.084,19.156,7.591,19.156ZM24.474,7.821H17.707V6.177h6.767V7.821Zm2.651,8.3c0-3.574-2.091-6.555-5.882-6.555a6.073,6.073,0,0,0-6.183,6.4c0,3.763,2.369,6.343,6.183,6.343A5.387,5.387,0,0,0,26.9,18.243H23.97a2.75,2.75,0,0,1-2.623,1.578,2.733,2.733,0,0,1-2.967-3.075H27.1C27.111,16.547,27.126,16.335,27.126,16.124Zm-8.74-1.469a2.594,2.594,0,0,1,2.755-2.581,2.474,2.474,0,0,1,2.647,2.581Z" transform="translate(0.5 -4.802)" fill="#eceee8" stroke="#146fd9" stroke-width="1"/>
</svg>
