<svg xmlns="http://www.w3.org/2000/svg" width="21.721" height="21.721" viewBox="0 0 21.721 21.721">
  <path id="Icon_awesome-dribbble" data-name="Icon awesome-dribbble" d="M11.423.563A10.861,10.861,0,1,0,22.284,11.423,10.873,10.873,0,0,0,11.423.563ZM18.6,5.571A9.233,9.233,0,0,1,20.7,11.35a21.679,21.679,0,0,0-6.46-.3c-.252-.615-.49-1.156-.815-1.822A12.357,12.357,0,0,0,18.6,5.571ZM17.573,4.5a10.474,10.474,0,0,1-4.862,3.351A49.517,49.517,0,0,0,9.249,2.418,9.253,9.253,0,0,1,17.573,4.5ZM7.479,3.042a59.192,59.192,0,0,1,3.439,5.365,34.6,34.6,0,0,1-8.576,1.13A9.311,9.311,0,0,1,7.479,3.042Zm-5.333,8.4c0-.095,0-.189,0-.283a34.22,34.22,0,0,0,9.534-1.32c.266.52.519,1.047.752,1.574A14.369,14.369,0,0,0,4.531,17.64,9.24,9.24,0,0,1,2.146,11.437Zm3.583,7.318a13.048,13.048,0,0,1,7.339-5.814,38.561,38.561,0,0,1,1.979,7.035,9.258,9.258,0,0,1-9.318-1.221Zm10.877.372a40.039,40.039,0,0,0-1.8-6.614,13.616,13.616,0,0,1,5.778.4,9.293,9.293,0,0,1-3.976,6.218Z" transform="translate(-0.563 -0.563)" fill="#ea4c89"/>
</svg>
