<svg xmlns="http://www.w3.org/2000/svg" width="22.025" height="23.446" viewBox="0 0 22.025 23.446">
  <path id="Icon_feather-github" data-name="Icon feather-github" d="M10.231,20.082C5.066,21.632,5.066,17.5,3,16.983m14.462,6.2v-4a3.481,3.481,0,0,0-.971-2.7c3.244-.362,6.653-1.591,6.653-7.231A5.619,5.619,0,0,0,21.6,5.383a5.237,5.237,0,0,0-.094-3.9s-1.219-.362-4.039,1.529a13.822,13.822,0,0,0-7.231,0c-2.82-1.89-4.039-1.529-4.039-1.529A5.237,5.237,0,0,0,6.1,5.382a5.62,5.62,0,0,0-1.55,3.9c0,5.6,3.409,6.828,6.653,7.231a3.481,3.481,0,0,0-.971,2.665v4" transform="translate(-1.969 -0.585)" fill="none" stroke="#000" stroke-linecap="round" stroke-linejoin="round" stroke-width="1.7"/>
</svg>
