<svg xmlns="http://www.w3.org/2000/svg" xmlns:xlink="http://www.w3.org/1999/xlink" width="21.726" height="21.721" viewBox="0 0 21.726 21.721">
  <defs>
    <linearGradient id="linear-gradient" x1="0.922" x2="0.106" y2="1" gradientUnits="objectBoundingBox">
      <stop offset="0" stop-color="#fbad50"/>
      <stop offset="0.236" stop-color="#ea8961"/>
      <stop offset="0.808" stop-color="#bc2a8d"/>
      <stop offset="1" stop-color="#8a3ab9"/>
    </linearGradient>
  </defs>
  <path id="Icon_awesome-instagram" data-name="Icon awesome-instagram" d="M10.86,7.529A5.569,5.569,0,1,0,16.429,13.1,5.56,5.56,0,0,0,10.86,7.529Zm0,9.19A3.621,3.621,0,1,1,14.481,13.1,3.627,3.627,0,0,1,10.86,16.719Zm7.1-9.418a1.3,1.3,0,1,1-1.3-1.3A1.3,1.3,0,0,1,17.956,7.3ZM21.645,8.62A6.428,6.428,0,0,0,19.89,4.069a6.471,6.471,0,0,0-4.551-1.755c-1.793-.1-7.169-.1-8.962,0a6.461,6.461,0,0,0-4.551,1.75A6.449,6.449,0,0,0,.071,8.615c-.1,1.793-.1,7.169,0,8.962a6.428,6.428,0,0,0,1.755,4.551,6.479,6.479,0,0,0,4.551,1.755c1.793.1,7.169.1,8.962,0a6.428,6.428,0,0,0,4.551-1.755,6.471,6.471,0,0,0,1.755-4.551c.1-1.793.1-7.164,0-8.957ZM19.328,19.5a3.666,3.666,0,0,1-2.065,2.065c-1.43.567-4.823.436-6.4.436s-4.978.126-6.4-.436A3.666,3.666,0,0,1,2.393,19.5c-.567-1.43-.436-4.823-.436-6.4s-.126-4.978.436-6.4A3.666,3.666,0,0,1,4.458,4.631c1.43-.567,4.823-.436,6.4-.436s4.978-.126,6.4.436A3.666,3.666,0,0,1,19.328,6.7c.567,1.43.436,4.823.436,6.4S19.895,18.076,19.328,19.5Z" transform="translate(0.005 -2.238)" fill="url(#linear-gradient)"/>
</svg>
