<svg xmlns="http://www.w3.org/2000/svg" width="23.322" height="23.321" viewBox="0 0 23.322 23.321">
  <path id="Icon_awesome-linkedin-in" data-name="Icon awesome-linkedin-in" d="M4.862,21.722H.359V7.22h4.5ZM2.608,5.242A2.62,2.62,0,1,1,5.216,2.609,2.63,2.63,0,0,1,2.608,5.242Zm19.109,16.48H17.223v-7.06c0-1.682-.034-3.84-2.341-3.84-2.341,0-2.7,1.828-2.7,3.719v7.181h-4.5V7.22H12V9.2h.063a4.732,4.732,0,0,1,4.261-2.342c4.558,0,5.4,3,5.4,6.9v7.966Z" transform="translate(0.8 0.799)" fill="none" stroke="#6396dd" stroke-width="1.6"/>
</svg>
