<svg xmlns="http://www.w3.org/2000/svg" width="21.721" height="21.721" viewBox="0 0 21.721 21.721">
  <path id="Icon_awesome-whatsapp" data-name="Icon awesome-whatsapp" d="M18.468,5.406A10.767,10.767,0,0,0,1.527,18.4L0,23.971l5.707-1.5a10.731,10.731,0,0,0,5.144,1.309h0A10.867,10.867,0,0,0,21.721,13.019a10.806,10.806,0,0,0-3.253-7.612ZM10.856,21.969A8.931,8.931,0,0,1,6.3,20.723l-.325-.194-3.384.887.9-3.3-.213-.339A8.964,8.964,0,1,1,19.9,13.019,9.046,9.046,0,0,1,10.856,21.969Zm4.907-6.7c-.267-.136-1.59-.785-1.838-.873s-.427-.136-.606.136-.693.873-.853,1.057-.315.2-.582.068a7.321,7.321,0,0,1-3.661-3.2c-.276-.475.276-.441.79-1.469a.5.5,0,0,0-.024-.47c-.068-.136-.606-1.459-.829-2s-.441-.451-.606-.461-.335-.01-.514-.01a1,1,0,0,0-.718.335,3.022,3.022,0,0,0-.941,2.245,5.269,5.269,0,0,0,1.1,2.783,12.018,12.018,0,0,0,4.6,4.063,5.263,5.263,0,0,0,3.229.674,2.755,2.755,0,0,0,1.813-1.28,2.249,2.249,0,0,0,.155-1.28C16.209,15.467,16.029,15.4,15.762,15.268Z" transform="translate(0 -2.25)" fill="#71a882"/>
</svg>
